{
    "asset" : {
        "generator" : "Khronos glTF Blender I/O v3.4.50",
        "version" : "2.0"
    },
    "extensionsUsed" : [
        "KHR_materials_transmission",
        "KHR_materials_specular"
    ],
    "scene" : 0,
    "scenes" : [
        {
            "name" : "Scene",
            "nodes" : [
                0
            ]
        }
    ],
    "nodes" : [
        {
            "mesh" : 0,
            "name" : "12190_Heart_v1_L3",
            "rotation" : [
                -1.990795135498047e-05,
                0,
                0,
                1
            ],
            "scale" : [
                0.16210901737213135,
                0.16210901737213135,
                0.16210901737213135
            ]
        }
    ],
    "materials" : [
        {
            "doubleSided" : true,
            "extensions" : {
                "KHR_materials_transmission" : {
                    "transmissionFactor" : 1
                },
                "KHR_materials_specular" : {
                    "specularColorFactor" : [
                        1,
                        1,
                        1
                    ]
                }
            },
            "name" : "Heart",
            "pbrMetallicRoughness" : {
                "baseColorFactor" : [
                    0.6980000138282776,
                    0.050999999046325684,
                    0.050999999046325684,
                    1
                ],
                "metallicFactor" : 0,
                "roughnessFactor" : 0.7654792070388794
            }
        }
    ],
    "meshes" : [
        {
            "name" : "12190_Heart_v1_L3",
            "primitives" : [
                {
                    "attributes" : {
                        "POSITION" : 0,
                        "TEXCOORD_0" : 1,
                        "NORMAL" : 2
                    },
                    "indices" : 3,
                    "material" : 0
                }
            ]
        }
    ],
    "accessors" : [
        {
            "bufferView" : 0,
            "componentType" : 5126,
            "count" : 5974,
            "max" : [
                10.625,
                19.961200714111328,
                4.570099830627441
            ],
            "min" : [
                -10.625,
                0.046300001442432404,
                -4.571199893951416
            ],
            "type" : "VEC3"
        },
        {
            "bufferView" : 1,
            "componentType" : 5126,
            "count" : 5974,
            "type" : "VEC2"
        },
        {
            "bufferView" : 2,
            "componentType" : 5126,
            "count" : 5974,
            "type" : "VEC3"
        },
        {
            "bufferView" : 3,
            "componentType" : 5123,
            "count" : 33792,
            "type" : "SCALAR"
        }
    ],
    "bufferViews" : [
        {
            "buffer" : 0,
            "byteLength" : 71688,
            "byteOffset" : 0,
            "target" : 34962
        },
        {
            "buffer" : 0,
            "byteLength" : 47792,
            "byteOffset" : 71688,
            "target" : 34962
        },
        {
            "buffer" : 0,
            "byteLength" : 71688,
            "byteOffset" : 119480,
            "target" : 34962
        },
        {
            "buffer" : 0,
            "byteLength" : 67584,
            "byteOffset" : 191168,
            "target" : 34963
        }
    ],
    "buffers" : [
        {
            "byteLength" : 258752,
            "uri" : "data:application/octet-stream;base64,"
        }
    ]
}
